<svg width="246px" height="60px" viewBox="0 0 246 60" version="1.1" xmlns="http://www.w3.org/2000/svg" xmlns:xlink="http://www.w3.org/1999/xlink">
    <g id="Page-1" stroke="none" stroke-width="1" fill="none" fill-rule="evenodd">
        <g id="Group-17">
            <path d="M97.0807453,34.3128205 C98.0347826,34.3128205 98.2732919,34.0748718 98.5118012,33.5989744 L109.960248,9.56615385 L110.198758,9.56615385 L110.198758,33.5989744 C110.198758,34.0748718 110.437267,34.3128205 110.914286,34.3128205 L114.014907,34.3128205 C114.491925,34.3128205 114.730435,34.0748718 114.730435,33.5989744 L114.730435,1.71384615 C114.730435,1.23794872 114.491925,1 114.014907,1 L110.437267,1 C109.48323,1 109.24472,1.23794872 109.006211,1.71384615 L96.4606211,28.1261538 L96.2698137,28.1261538 L83.7242236,1.71384615 C83.4857143,1.23794872 83.247205,1 82.2931677,1 L78.715528,1 C78.2385093,1 78,1.23794872 78,1.71384615 L78,33.5989744 C78,34.0748718 78.2385093,34.3128205 78.715528,34.3128205 L81.8161491,34.3128205 C82.2931677,34.3128205 82.531677,34.0748718 82.531677,33.5989744 L82.531677,9.56615385 L82.7701863,9.56615385 L94.2186335,33.5989744 C94.4571429,34.0748718 94.6956522,34.3128205 95.6496894,34.3128205 L97.0807453,34.3128205 Z M129.613416,21.4635897 L135.242236,6.23487179 L135.433043,6.23487179 L141.061863,21.4635897 L129.613416,21.4635897 Z M142.731429,25.7466667 L145.59354,33.5989744 C145.784348,34.0748718 146.070559,34.3128205 146.786087,34.3128205 L150.125217,34.3128205 C150.602236,34.3128205 150.793043,34.0748718 150.602236,33.5989744 L138.199752,1.71384615 C137.961242,1.23794872 137.722733,1 137.007205,1 L133.668075,1 C132.952547,1 132.714037,1.23794872 132.475528,1.71384615 L120.073043,33.5989744 C119.882236,34.0748718 120.073043,34.3128205 120.550062,34.3128205 L123.889193,34.3128205 C124.60472,34.3128205 124.890932,34.0748718 125.081739,33.5989744 L127.943851,25.7466667 L142.731429,25.7466667 Z M160.476522,1.71384615 C160.476522,1.23794872 160.238012,1 159.760994,1 L156.660373,1 C156.183354,1 155.944845,1.23794872 155.944845,1.71384615 L155.944845,33.5513846 C155.944845,34.0748718 156.183354,34.3128205 156.660373,34.3128205 L180.034286,34.3128205 C180.511304,34.3128205 180.749814,34.0748718 180.749814,33.5989744 L180.749814,30.7435897 C180.749814,30.2676923 180.511304,30.0297436 180.034286,30.0297436 L160.476522,30.0297436 L160.476522,1.71384615 Z M191.005714,30.0297436 L191.005714,19.56 L206.795031,19.56 C207.224348,19.56 207.462857,19.3220513 207.462857,18.8461538 L207.462857,15.9907692 C207.462857,15.5148718 207.224348,15.2769231 206.747329,15.2769231 L191.005714,15.2769231 L191.005714,5.28307692 L211.088199,5.28307692 C211.517516,5.28307692 211.756025,5.04512821 211.756025,4.56923077 L211.756025,1.71384615 C211.756025,1.23794872 211.517516,1 211.040497,1 L187.189565,1 C186.712547,1 186.474037,1.23794872 186.474037,1.7614359 L186.474037,33.5989744 C186.474037,34.0748718 186.712547,34.3128205 187.189565,34.3128205 L211.565217,34.3128205 C211.994534,34.3128205 212.233043,34.0748718 212.233043,33.5989744 L212.233043,30.7435897 C212.233043,30.2676923 211.994534,30.0297436 211.517516,30.0297436 L191.005714,30.0297436 Z M239.661615,22.4153846 C239.661615,22.4153846 245.147329,21.7015385 245.147329,14.5630769 L245.147329,9.32820513 C245.147329,3.85538462 242.285217,1 236.560994,1 L219.626832,1 C219.149814,1 218.911304,1.23794872 218.911304,1.71384615 L218.911304,33.5989744 C218.911304,34.0748718 219.149814,34.3128205 219.626832,34.3128205 L222.727453,34.3128205 C223.204472,34.3128205 223.442981,34.0748718 223.442981,33.5989744 L223.442981,22.8912821 L235.129938,22.8912821 L240.854161,33.5989744 C241.092671,34.0748718 241.33118,34.3128205 242.046708,34.3128205 L245.385839,34.3128205 C245.862857,34.3128205 246.101366,34.0748718 245.862857,33.5989744 L239.661615,22.4153846 Z M223.442981,18.6082051 L223.442981,5.28307692 L236.560994,5.28307692 C239.184596,5.28307692 240.615652,6.71076923 240.615652,9.32820513 L240.615652,14.5630769 C240.615652,17.1805128 239.184596,18.6082051 236.560994,18.6082051 L223.442981,18.6082051 Z" id="MALER" fill="#fff"></path>
            <path d="M84.7479901,46.1870036 C84.3731018,46.1870036 84.2981241,46.2805054 84.1856576,46.467509 L79.6869975,53.2931402 L79.5932754,53.2931402 L79.5932754,46.467509 C79.5932754,46.2805054 79.4995534,46.1870036 79.3121092,46.1870036 L78.2811663,46.1870036 C78.0937221,46.1870036 78,46.2805054 78,46.467509 L78,55.4436816 C78,55.6306852 78.0937221,55.724187 78.2811663,55.724187 L79.4058313,55.724187 C79.7807196,55.724187 79.8556973,55.6306852 79.9681638,55.4436816 L84.4668238,48.6180503 L84.5605459,48.6180503 L84.5605459,55.4436816 C84.5605459,55.6306852 84.654268,55.724187 84.8417122,55.724187 L85.8726551,55.724187 C86.0600993,55.724187 86.1538214,55.6306852 86.1538214,55.4436816 L86.1538214,46.467509 C86.1538214,46.2805054 86.0600993,46.1870036 85.8726551,46.1870036 L84.7479901,46.1870036 Z M95.5260298,51.6101079 L95.5260298,55.4436816 C95.5260298,55.6306852 95.6197519,55.724187 95.8071961,55.724187 L96.838139,55.724187 C97.0255832,55.724187 97.1193053,55.6306852 97.1193053,55.4436816 L97.1193053,46.467509 C97.1193053,46.2805054 97.0255832,46.1870036 96.838139,46.1870036 L95.8071961,46.1870036 C95.6197519,46.1870036 95.5260298,46.2805054 95.5260298,46.467509 L95.5260298,50.2075809 L90.7462035,50.2075809 L90.7462035,46.467509 C90.7462035,46.2805054 90.6524814,46.1870036 90.4650373,46.1870036 L89.4340943,46.1870036 C89.2466502,46.1870036 89.1529281,46.2805054 89.1529281,46.467509 L89.1529281,55.4436816 C89.1529281,55.6306852 89.2466502,55.724187 89.4340943,55.724187 L90.4650373,55.724187 C90.6524814,55.724187 90.7462035,55.6306852 90.7462035,55.4436816 L90.7462035,51.6101079 L95.5260298,51.6101079 Z M103.304963,55.724187 C103.492407,55.724187 103.586129,55.6306852 103.586129,55.4436816 L103.586129,47.6830324 L106.491514,47.6830324 C106.678958,47.6830324 106.77268,47.5895306 106.77268,47.402527 L106.77268,46.467509 C106.77268,46.2805054 106.678958,46.1870036 106.491514,46.1870036 L99.0874691,46.1870036 C98.9000249,46.1870036 98.8063028,46.2805054 98.8063028,46.467509 L98.8063028,47.402527 C98.8063028,47.5895306 98.9000249,47.6830324 99.0874691,47.6830324 L101.992854,47.6830324 L101.992854,55.4436816 C101.992854,55.6306852 102.086576,55.724187 102.27402,55.724187 L103.304963,55.724187 Z M109.865509,50.1140791 L109.865509,48.8985557 C109.865509,48.0570396 110.427841,47.4960288 111.27134,47.4960288 L113.52067,47.4960288 C114.364169,47.4960288 114.926501,48.0570396 114.926501,48.8985557 L114.926501,50.1140791 L109.865509,50.1140791 Z M116.238611,51.6101079 C116.426055,51.6101079 116.519777,51.5166061 116.519777,51.3296025 L116.519777,48.8985557 C116.519777,47.0285198 115.488834,46 113.52067,46 L111.27134,46 C109.303176,46 108.272233,47.0285198 108.272233,48.8985557 L108.272233,53.0126348 C108.272233,54.8826708 109.303176,55.9111906 111.27134,55.9111906 L113.52067,55.9111906 C115.488834,55.9111906 116.519777,54.8826708 116.519777,53.0126348 L116.519777,52.919133 C116.519777,52.7321294 116.426055,52.6386276 116.238611,52.6386276 L115.207668,52.6386276 C115.020223,52.6386276 114.926501,52.7321294 114.926501,52.919133 L114.926501,53.0126348 C114.926501,53.854151 114.364169,54.4151618 113.52067,54.4151618 L111.27134,54.4151618 C110.427841,54.4151618 109.865509,53.854151 109.865509,53.0126348 L109.865509,51.6101079 L116.238611,51.6101079 Z M120.924715,54.2281582 L120.924715,49.4595665 C120.924715,48.3375449 121.768214,47.4960288 122.892879,47.4960288 L124.486154,47.4960288 C125.329653,47.4960288 125.891985,48.0570396 125.891985,48.8985557 L125.891985,52.8256312 C125.891985,53.6671474 125.329653,54.2281582 124.486154,54.2281582 L120.924715,54.2281582 Z M124.486154,55.724187 C126.454318,55.724187 127.485261,54.6956672 127.485261,52.8256312 L127.485261,48.8985557 C127.485261,47.0285198 126.454318,46 124.486154,46 L123.080323,46 C121.487047,46 121.018437,47.1220216 121.018437,47.1220216 L120.924715,47.1220216 L120.924715,46.467509 C120.924715,46.2805054 120.830993,46.1870036 120.643549,46.1870036 L119.612606,46.1870036 C119.425161,46.1870036 119.331439,46.2805054 119.331439,46.467509 L119.331439,58.9967499 C119.331439,59.1837535 119.425161,59.2772553 119.612606,59.2772553 L120.643549,59.2772553 C120.830993,59.2772553 120.924715,59.1837535 120.924715,58.9967499 L120.924715,55.724187 L124.486154,55.724187 Z M135.170472,54.2281582 L131.890199,54.2281582 L131.890199,50.8620935 L135.170472,50.8620935 C135.920248,50.8620935 136.388859,51.3296025 136.388859,52.0776169 L136.388859,53.0126348 C136.388859,53.7606492 135.920248,54.2281582 135.170472,54.2281582 Z M135.170472,55.724187 C137.044913,55.724187 137.982134,54.789169 137.982134,53.0126348 L137.982134,52.0776169 C137.982134,50.3010827 137.044913,49.3660647 135.170472,49.3660647 L131.890199,49.3660647 L131.890199,46.467509 C131.890199,46.2805054 131.796477,46.1870036 131.609032,46.1870036 L130.57809,46.1870036 C130.390645,46.1870036 130.296923,46.2805054 130.296923,46.467509 L130.296923,55.4436816 C130.296923,55.6306852 130.390645,55.724187 130.57809,55.724187 L135.170472,55.724187 Z M142.012184,50.1140791 L142.012184,48.8985557 C142.012184,48.0570396 142.574516,47.4960288 143.418015,47.4960288 L145.667345,47.4960288 C146.510844,47.4960288 147.073176,48.0570396 147.073176,48.8985557 L147.073176,50.1140791 L142.012184,50.1140791 Z M148.385286,51.6101079 C148.57273,51.6101079 148.666452,51.5166061 148.666452,51.3296025 L148.666452,48.8985557 C148.666452,47.0285198 147.635509,46 145.667345,46 L143.418015,46 C141.449851,46 140.418908,47.0285198 140.418908,48.8985557 L140.418908,53.0126348 C140.418908,54.8826708 141.449851,55.9111906 143.418015,55.9111906 L145.667345,55.9111906 C147.635509,55.9111906 148.666452,54.8826708 148.666452,53.0126348 L148.666452,52.919133 C148.666452,52.7321294 148.57273,52.6386276 148.385286,52.6386276 L147.354343,52.6386276 C147.166899,52.6386276 147.073176,52.7321294 147.073176,52.919133 L147.073176,53.0126348 C147.073176,53.854151 146.510844,54.4151618 145.667345,54.4151618 L143.418015,54.4151618 C142.574516,54.4151618 142.012184,53.854151 142.012184,53.0126348 L142.012184,51.6101079 L148.385286,51.6101079 Z M153.07139,54.2281582 L153.07139,49.4595665 C153.07139,48.3375449 153.914889,47.4960288 155.039554,47.4960288 L156.632829,47.4960288 C157.476328,47.4960288 158.03866,48.0570396 158.03866,48.8985557 L158.03866,52.8256312 C158.03866,53.6671474 157.476328,54.2281582 156.632829,54.2281582 L153.07139,54.2281582 Z M156.632829,55.724187 C158.600993,55.724187 159.631936,54.6956672 159.631936,52.8256312 L159.631936,48.8985557 C159.631936,47.0285198 158.600993,46 156.632829,46 L155.226998,46 C153.633722,46 153.165112,47.1220216 153.165112,47.1220216 L153.07139,47.1220216 L153.07139,46.467509 C153.07139,46.2805054 152.977668,46.1870036 152.790224,46.1870036 L151.759281,46.1870036 C151.571837,46.1870036 151.478114,46.2805054 151.478114,46.467509 L151.478114,58.9967499 C151.478114,59.1837535 151.571837,59.2772553 151.759281,59.2772553 L152.790224,59.2772553 C152.977668,59.2772553 153.07139,59.1837535 153.07139,58.9967499 L153.07139,55.724187 L156.632829,55.724187 Z M173.877693,55.724187 C174.065137,55.724187 174.158859,55.6306852 174.158859,55.4436816 L174.158859,46.467509 C174.158859,46.2805054 174.065137,46.1870036 173.877693,46.1870036 L166.473648,46.1870036 C166.286204,46.1870036 166.192482,46.2805054 166.192482,46.467509 L166.192482,55.4436816 C166.192482,55.6306852 166.286204,55.724187 166.473648,55.724187 L167.504591,55.724187 C167.692035,55.724187 167.785757,55.6306852 167.785757,55.4436816 L167.785757,47.6830324 L172.565583,47.6830324 L172.565583,55.4436816 C172.565583,55.6306852 172.659306,55.724187 172.84675,55.724187 L173.877693,55.724187 Z M183.718512,53.0126348 C183.718512,53.854151 183.156179,54.4151618 182.31268,54.4151618 L179.969628,54.4151618 C179.126129,54.4151618 178.563797,53.854151 178.563797,53.0126348 L178.563797,48.8985557 C178.563797,48.0570396 179.126129,47.4960288 179.969628,47.4960288 L182.31268,47.4960288 C183.156179,47.4960288 183.718512,48.0570396 183.718512,48.8985557 L183.718512,53.0126348 Z M185.311787,48.8985557 C185.311787,47.0285198 184.280844,46 182.31268,46 L179.969628,46 C178.001464,46 176.970521,47.0285198 176.970521,48.8985557 L176.970521,53.0126348 C176.970521,54.8826708 178.001464,55.9111906 179.969628,55.9111906 L182.31268,55.9111906 C184.280844,55.9111906 185.311787,54.8826708 185.311787,53.0126348 L185.311787,48.8985557 Z M193.55933,54.2281582 L189.154392,54.2281582 L190.466502,47.6830324 L193.55933,47.6830324 L193.55933,54.2281582 Z M195.152606,46.467509 C195.152606,46.2805054 195.058884,46.1870036 194.87144,46.1870036 L189.623003,46.1870036 C189.341837,46.1870036 189.191881,46.2805054 189.154392,46.467509 L187.561117,54.2281582 L186.717618,54.2281582 C186.530174,54.2281582 186.436452,54.32166 186.436452,54.5086636 L186.436452,57.5007211 C186.436452,57.6877247 186.530174,57.7812265 186.717618,57.7812265 L187.748561,57.7812265 C187.936005,57.7812265 188.029727,57.6877247 188.029727,57.5007211 L188.029727,55.724187 L194.777718,55.724187 L194.777718,57.5007211 C194.777718,57.6877247 194.87144,57.7812265 195.058884,57.7812265 L196.089827,57.7812265 C196.277271,57.7812265 196.370993,57.6877247 196.370993,57.5007211 L196.370993,54.5086636 C196.370993,54.32166 196.277271,54.2281582 196.089827,54.2281582 L195.152606,54.2281582 L195.152606,46.467509 Z M208.273698,55.4436816 C208.36742,55.6306852 208.461142,55.724187 208.742308,55.724187 L209.866973,55.724187 C210.054417,55.724187 210.148139,55.6306852 210.054417,55.4436816 L207.430199,50.6750899 L209.773251,46.467509 C209.866973,46.2805054 209.773251,46.1870036 209.585807,46.1870036 L208.461142,46.1870036 C208.179976,46.1870036 208.086254,46.2805054 207.992532,46.467509 L206.11809,49.9270755 L203.775038,49.9270755 L203.775038,46.467509 C203.775038,46.2805054 203.681316,46.1870036 203.493871,46.1870036 L202.462929,46.1870036 C202.275484,46.1870036 202.181762,46.2805054 202.181762,46.467509 L202.181762,55.4436816 C202.181762,55.6306852 202.275484,55.724187 202.462929,55.724187 L203.493871,55.724187 C203.681316,55.724187 203.775038,55.6306852 203.775038,55.4436816 L203.775038,51.4231043 L206.11809,51.4231043 L208.273698,55.4436816 Z M215.059177,47.6830324 L218.152006,47.6830324 L218.152006,55.4436816 C218.152006,55.6306852 218.245728,55.724187 218.433172,55.724187 L219.464115,55.724187 C219.651559,55.724187 219.745281,55.6306852 219.745281,55.4436816 L219.745281,46.467509 C219.745281,46.2805054 219.651559,46.1870036 219.464115,46.1870036 L214.215678,46.1870036 C213.934512,46.1870036 213.784556,46.2805054 213.747068,46.467509 L212.341236,53.1996384 C212.172537,53.9663532 211.685182,54.4151618 211.029127,54.4151618 L210.747961,54.4151618 C210.560517,54.4151618 210.466795,54.5086636 210.466795,54.6956672 L210.466795,55.6306852 C210.466795,55.8176888 210.560517,55.9111906 210.747961,55.9111906 L211.029127,55.9111906 C212.716125,55.9111906 213.559623,55.0696744 213.934512,53.1996384 L215.059177,47.6830324 Z M234.55337,48.8985557 C234.55337,47.0285198 233.522427,46 231.554264,46 L229.679822,46 C227.711658,46 226.680715,47.0285198 226.680715,48.8985557 L226.680715,50.2075809 L224.337663,50.2075809 L224.337663,46.467509 C224.337663,46.2805054 224.243941,46.1870036 224.056497,46.1870036 L223.025554,46.1870036 C222.83811,46.1870036 222.744388,46.2805054 222.744388,46.467509 L222.744388,55.4436816 C222.744388,55.6306852 222.83811,55.724187 223.025554,55.724187 L224.056497,55.724187 C224.243941,55.724187 224.337663,55.6306852 224.337663,55.4436816 L224.337663,51.6101079 L226.680715,51.6101079 L226.680715,53.0126348 C226.680715,54.8826708 227.711658,55.9111906 229.679822,55.9111906 L231.554264,55.9111906 C233.522427,55.9111906 234.55337,54.8826708 234.55337,53.0126348 L234.55337,48.8985557 Z M232.960095,53.0126348 C232.960095,53.854151 232.397762,54.4151618 231.554264,54.4151618 L229.679822,54.4151618 C228.836323,54.4151618 228.273991,53.854151 228.273991,53.0126348 L228.273991,48.8985557 C228.273991,48.0570396 228.836323,47.4960288 229.679822,47.4960288 L231.554264,47.4960288 C232.397762,47.4960288 232.960095,48.0570396 232.960095,48.8985557 L232.960095,53.0126348 Z M238.770864,46.467509 C238.770864,46.2805054 238.677142,46.1870036 238.489698,46.1870036 L237.458755,46.1870036 C237.271311,46.1870036 237.177589,46.2805054 237.177589,46.467509 L237.177589,49.6465701 C237.177589,51.5166061 238.208532,52.5451258 240.176695,52.5451258 L243.363246,52.5451258 L243.363246,55.4436816 C243.363246,55.6306852 243.456968,55.724187 243.644413,55.724187 L244.675355,55.724187 C244.8628,55.724187 244.956522,55.6306852 244.956522,55.4436816 L244.956522,46.467509 C244.956522,46.2805054 244.8628,46.1870036 244.675355,46.1870036 L243.644413,46.1870036 C243.456968,46.1870036 243.363246,46.2805054 243.363246,46.467509 L243.363246,51.0490971 L240.176695,51.0490971 C239.333197,51.0490971 238.770864,50.4880863 238.770864,49.6465701 L238.770864,46.467509 Z" id="интерьер-под-ключ" fill="#b4b4b4"></path>
            <g id="Group-14" transform="translate(0.000000, 0.722745)">
                <path d="M18.0922449,4.54747351e-13 L0.887266606,4.54747351e-13 C0.887266606,4.54747351e-13 6.69872989,5.80934383 6.69872989,14.3550927 C6.69872989,23.5331877 1.61969901,32.083095 0.976203378,41.7495159 C0.332707743,51.4159368 5.49044121,55 5.49044121,55 L22.1356083,55 C22.0530383,54.8741783 17.9261265,51.4175738 17.9261265,41.7495159 C17.9261265,32.0814581 24.8571429,22.6724679 24.8571429,13.8823074 C24.8571429,5.0921468 18.0922449,4.54747351e-13 18.0922449,4.54747351e-13 Z" id="Combined-Shape" fill="#373937"></path>
                <path d="M23.0641049,4.54747351e-13 L43.2698413,0 L43.2698413,55 L26.7466446,55 C26.7466446,55 21.4968127,51.4159368 22.1517988,41.7495159 C22.8067849,32.083095 28.9793398,23.5331877 28.9793398,14.3550927 C28.9793398,5.80934383 23.0641049,4.54747351e-13 23.0641049,4.54747351e-13 Z" id="Rectangle-24" fill="#AAB3B4"></path>
                <rect id="Rectangle-24" fill="#1A9E08" x="46.952381" y="0" width="11.047619" height="55"></rect>
            </g>
        </g>
    </g>
</svg>