<?xml version="1.0" encoding="UTF-8"?>
<svg data-name="Layer 1" viewBox="0 0 512 512" xmlns="http://www.w3.org/2000/svg">
<title>Phone Files</title>
<style>
  /* <![CDATA[ */
  path {
    fill: #1a9e08;
  }
  /* ]]> */
</style>
<path d="M137.29,477h160a46.053,46.053,0,0,0,46-46V363h40.193c.208,0,.413-.011.616-.031.4.014.8.031,1.21.031,19.52,0,35.4-16.173,35.4-36.053V159a6,6,0,0,0-6-6H343.29V81a46.053,46.053,0,0,0-46-46h-160a46.052,46.052,0,0,0-46,46V431A46.052,46.052,0,0,0,137.29,477ZM268.7,351c-12.9,0-23.4-10.79-23.4-24.053V313.486h104.6v13.461A36.273,36.273,0,0,0,358.95,351ZM408.71,326.947c0,13.263-10.5,24.053-23.418,24.053-12.9,0-23.4-10.79-23.4-24.053V307.486a6,6,0,0,0-6-6H280.077L281.269,165H408.71ZM137.29,47h160a34.039,34.039,0,0,1,34,34V95h-14a6,6,0,0,0,0,12h14v46H275.321a6,6,0,0,0-6,5.948l-1.245,142.538H239.294a6,6,0,0,0-6,6v19.461c0,19.065,14.608,34.711,33.023,35.963a6.034,6.034,0,0,0,1,.09h63.97v30h-228V107h163a6,6,0,0,0,0-12h-163V81A34.038,34.038,0,0,1,137.29,47Zm-34,358h228v26a34.039,34.039,0,0,1-34,34h-160a34.038,34.038,0,0,1-34-34Z"/>
<path d="M285.984,107H297.1a6,6,0,0,0,0-12H285.984a6,6,0,0,0,0,12Z"/>
<path d="m217.29 456a21 21 0 1 0 -21 -21 21.024 21.024 0 0 0 21 21zm0-30a9 9 0 1 1 -9 9 9.011 9.011 0 0 1 9 -9z"/>
<path d="m307.28 203.43h24.472a6 6 0 0 0 0 -12h-24.472a6 6 0 0 0 0 12z"/>
<path d="m307.28 237.92h71.182a6 6 0 0 0 0 -12h-71.182a6 6 0 0 0 0 12z"/>
<path d="m307.28 272.4h71.182a6 6 0 0 0 0 -12h-71.182a6 6 0 0 0 0 12z"/>
</svg>
