<?xml version="1.0" encoding="UTF-8"?>
<svg data-name="Layer 1" viewBox="0 0 512 512" xmlns="http://www.w3.org/2000/svg">
<title>Phone documents</title>
<style>
  /* <![CDATA[ */
  path {
    fill: #1a9e08;
  }
  /* ]]> */
</style>
<path d="M157.288,477h160a46.053,46.053,0,0,0,46-46V337.949h11.424a26.029,26.029,0,0,0,26-26V195.135a6,6,0,0,0-1.761-4.247L363.288,155.3V81a46.053,46.053,0,0,0-46-46h-160a46.052,46.052,0,0,0-46,46V431A46.052,46.052,0,0,0,157.288,477ZM374.712,325.949H342.484V230.578a6,6,0,0,0-1.761-4.247L290.2,175.909c-.012-.012-.027-.021-.039-.033a5.98,5.98,0,0,0-4.3-1.825c-.16,0-.316.011-.472.024-.159-.013-.318-.024-.478-.024H258.94v-9.444a14.017,14.017,0,0,1,14-14h65.14v24.634a26.029,26.029,0,0,0,26,26h24.632V311.949A14.015,14.015,0,0,1,374.712,325.949Zm-94.86-139.9v24.633a26.029,26.029,0,0,0,26,26h24.632V347.393a14.016,14.016,0,0,1-14,14H214.712a14.017,14.017,0,0,1-14-14V200.051a14.016,14.016,0,0,1,14-14Zm42.231,38.633H305.852a14.016,14.016,0,0,1-14-14V194.515Zm29.2-64.407v.561h.562l28.462,28.4H364.08a14.016,14.016,0,0,1-14-14V159.072ZM157.288,47h160a34.039,34.039,0,0,1,34,34V95h-14a6,6,0,0,0,0,12h14v36.324l-2.865-2.858c-.012-.013-.027-.021-.039-.034a5.98,5.98,0,0,0-4.3-1.825c-.16,0-.316.012-.472.024-.159-.012-.318-.024-.478-.024H272.94a26.03,26.03,0,0,0-26,26v9.444H214.712a26.029,26.029,0,0,0-26,26V347.393a26.03,26.03,0,0,0,26,26H316.484a26.029,26.029,0,0,0,26-26v-9.444h8.8V393h-228V107h163a6,6,0,0,0,0-12h-163V81A34.038,34.038,0,0,1,157.288,47Zm-34,358h228v26a34.039,34.039,0,0,1-34,34h-160a34.038,34.038,0,0,1-34-34Z"/>
<path d="M305.982,107H317.1a6,6,0,0,0,0-12H305.982a6,6,0,0,0,0,12Z"/>
<path d="m237.29 456a21 21 0 1 0 -21 -21 21.024 21.024 0 0 0 21 21zm0-30a9 9 0 1 1 -9 9 9.011 9.011 0 0 1 9 -9z"/>
<path d="M228.1,267.222h85.254a6,6,0,1,0,0-12H228.1a6,6,0,1,0,0,12Z"/>
<path d="m294.97 290.22h-12.688a6 6 0 1 0 0 12h12.688a6 6 0 0 0 0 -12z"/>
<path d="M228.1,302.222h30.629a6,6,0,1,0,0-12H228.1a6,6,0,1,0,0,12Z"/>
</svg>
