<?xml version="1.0" encoding="UTF-8"?>
<svg data-name="Layer 1" viewBox="0 0 512 512" xmlns="http://www.w3.org/2000/svg">
<title>Image</title>
<style>
  /* <![CDATA[ */
  path {
    fill: #1a9e08;
  }
  /* ]]> */
</style>
<path d="m334.98 36.828h-157.96a46.053 46.053 0 0 0 -46 46v346.34a46.053 46.053 0 0 0 46 46h157.96a46.053 46.053 0 0 0 46 -46v-346.34a46.053 46.053 0 0 0 -46 -46zm0 426.34h-157.96a34.038 34.038 0 0 1 -34 -34v-25.388h225.96v25.388a34.038 34.038 0 0 1 -34 34zm34-366.86h-27.05a6 6 0 0 0 0 12h27.05v283.47h-225.96v-283.47h139.09a6 6 0 0 0 0 -12h-139.09v-13.489a34.038 34.038 0 0 1 34 -34h157.96a34.038 34.038 0 0 1 34 34z"/>
<path d="m306.92 108.32h11.021a6 6 0 0 0 0 -12h-11.021a6 6 0 0 0 0 12z"/>
<path d="M256,412.605a20.873,20.873,0,1,0,20.873,20.874A20.9,20.9,0,0,0,256,412.605Zm0,29.746a8.873,8.873,0,1,1,8.873-8.872A8.883,8.883,0,0,1,256,442.351Z"/>
<path d="m268.67 260.06a19.955 19.955 0 1 0 -19.954 -19.955 19.978 19.978 0 0 0 19.954 19.955zm0-27.909a7.955 7.955 0 1 1 -7.954 7.954 7.964 7.964 0 0 1 7.954 -7.954z"/>
<path d="M331.771,253.5V202.953a6,6,0,0,0-6-6H186.229a6,6,0,0,0-6,6V309.047a6,6,0,0,0,6,6H325.771a6,6,0,0,0,6-6V253.5Zm-12-44.547v40.808l-54.908,28.546-31.53-22.626a6,6,0,0,0-5.987-.584L192.229,271.11V208.953ZM192.229,284.3l36.933-16.842,49.594,35.59H192.229Zm107.11,18.748-23.547-16.9,43.979-22.863v39.761Z"/>
</svg>
