<?xml version="1.0" encoding="UTF-8"?>
<svg data-name="Layer 1" viewBox="0 0 512 512" xmlns="http://www.w3.org/2000/svg">
<title>Card Payment</title>
<style>
  /* <![CDATA[ */
  path {
    fill: #1a9e08;
  }
  /* ]]> */
</style>
<path d="M435,161H303V81a46.053,46.053,0,0,0-46-46H97A46.053,46.053,0,0,0,51,81V431a46.053,46.053,0,0,0,46,46H257a46.053,46.053,0,0,0,46-46V351H435a26.03,26.03,0,0,0,26-26V187A26.03,26.03,0,0,0,435,161ZM214,210.092H449v18H214ZM449,187v11.092H214V187a14.015,14.015,0,0,1,14-14H435A14.015,14.015,0,0,1,449,187ZM257,465H97a34.038,34.038,0,0,1-34-34V405H291v26A34.038,34.038,0,0,1,257,465Zm34-72H63V107H226a6,6,0,0,0,0-12H63V81A34.038,34.038,0,0,1,97,47H257a34.038,34.038,0,0,1,34,34V95H277a6,6,0,0,0,0,12h14v54H228a26.03,26.03,0,0,0-26,26V325a26.03,26.03,0,0,0,26,26h63Zm144-54H228a14.015,14.015,0,0,1-14-14V240.092H449V325A14.015,14.015,0,0,1,435,339Z"/>
<path d="M402.969,262.323a30.542,30.542,0,0,0-13.35,3.077,30.646,30.646,0,1,0,0,55.139,30.64,30.64,0,1,0,13.35-58.216Zm-45.346,30.646a18.646,18.646,0,1,1,18.646,18.646A18.668,18.668,0,0,1,357.623,292.969Zm45.346,18.646a18.651,18.651,0,0,1-2.271-.148,30.624,30.624,0,0,0,0-37,18.642,18.642,0,1,1,2.271,37.144Z"/>
<path d="m245.69 107h11.116a6 6 0 0 0 0 -12h-11.116a6 6 0 1 0 0 12z"/>
<path d="m177 414a21 21 0 1 0 21 21 21.023 21.023 0 0 0 -21 -21zm0 30a9 9 0 1 1 9 -9 9.011 9.011 0 0 1 -9 9z"/>
<path d="M169,237H124.71a6,6,0,1,0,0,12H169a6,6,0,0,0,0-12Z"/>
<path d="M88,249H98.176a6,6,0,0,0,0-12H88a6,6,0,0,0,0,12Z"/>
<path d="M169,277H150.71a6,6,0,0,0,0,12H169a6,6,0,0,0,0-12Z"/>
<path d="M124.176,277H88a6,6,0,0,0,0,12h36.176a6,6,0,0,0,0-12Z"/>
<path d="M169,193h-8a6,6,0,0,0,0,12h8a6,6,0,0,0,0-12Z"/>
<path d="M88,205h46.176a6,6,0,0,0,0-12H88a6,6,0,0,0,0,12Z"/>
</svg>
