<?xml version="1.0" encoding="UTF-8"?>
<svg data-name="Layer 1" viewBox="0 0 512 512" xmlns="http://www.w3.org/2000/svg">
<title>Artboard 9</title>
<style>
  /* <![CDATA[ */
  path {
    fill: #1a9e08;
  }
  /* ]]> */
</style>
<path d="M136.145,477h160a46.053,46.053,0,0,0,46-46V368h55.71a24.028,24.028,0,0,0,24-24V202a6,6,0,0,0-1.757-4.243l-62-62A6,6,0,0,0,353.855,134h-11.71V81a46.053,46.053,0,0,0-46-46h-160a46.053,46.053,0,0,0-46,46V431A46.053,46.053,0,0,0,136.145,477Zm261.71-121h-124a12.013,12.013,0,0,1-12-12V158a12.013,12.013,0,0,1,12-12h74v38a24.028,24.028,0,0,0,24,24h38V344A12.013,12.013,0,0,1,397.855,356Zm-38-201.515L401.37,196H371.855a12.013,12.013,0,0,1-12-12ZM136.145,47h160a34.038,34.038,0,0,1,34,34V95h-14a6,6,0,0,0,0,12h14v27h-56.29a24.028,24.028,0,0,0-24,24V344a24.028,24.028,0,0,0,24,24h56.29v25h-228V107h163a6,6,0,0,0,0-12h-163V81A34.038,34.038,0,0,1,136.145,47Zm-34,358h228v26a34.038,34.038,0,0,1-34,34h-160a34.038,34.038,0,0,1-34-34Z"/>
<path d="m284.84 107h11.116a6 6 0 0 0 0 -12h-11.116a6 6 0 0 0 0 12z"/>
<path d="m216.14 456a21 21 0 1 0 -21 -21 21.023 21.023 0 0 0 21 21zm0-30a9 9 0 1 1 -9 9 9.011 9.011 0 0 1 9 -9z"/>
<path d="m345.5 217.14h-19.288a6 6 0 0 0 -6 6v96.428a6 6 0 0 0 6 6h19.288a6 6 0 0 0 6 -6v-96.428a6 6 0 0 0 -6 -6zm-6 96.428h-7.286v-84.428h7.286z"/>
<path d="m306.93 255.71h-19.286a6 6 0 0 0 -6 6v57.857a6 6 0 0 0 6 6h19.286a6 6 0 0 0 6 -6v-57.857a6 6 0 0 0 -6 -6zm-6 57.857h-7.286v-45.857h7.286z"/>
<path d="m384.07 242.86h-19.285a6 6 0 0 0 -6 6v70.714a6 6 0 0 0 6 6h19.285a6 6 0 0 0 6 -6v-70.714a6 6 0 0 0 -6 -6zm-6 70.714h-7.285v-58.714h7.285z"/>
</svg>
