<?xml version="1.0" encoding="UTF-8"?>
<svg data-name="Layer 1" viewBox="0 0 512 512" xmlns="http://www.w3.org/2000/svg">
<title>E-Payment</title>
<style>
  /* <![CDATA[ */
  path {
    fill: #1a9e08;
  }
  /* ]]> */
</style>
<path d="M320,191.7v8.324a31,31,0,0,0,6,61.412,19,19,0,0,1,.178,37.991c-.059,0-.118-.009-.178-.009s-.119.007-.178.009A19.017,19.017,0,0,1,307,280.431a6,6,0,0,0-12,0,31.049,31.049,0,0,0,25,30.412v9.462a6,6,0,1,0,12,0v-9.462a31,31,0,0,0-6-61.412,19,19,0,1,1,19-19,6,6,0,1,0,12,0,31.05,31.05,0,0,0-25-30.412V191.7a6,6,0,1,0-12,0Z"/>
<path d="M126,477H286a46.052,46.052,0,0,0,46-46V361.827a106,106,0,0,0,0-211.654V81a46.052,46.052,0,0,0-46-46H126A46.052,46.052,0,0,0,80,81V431A46.052,46.052,0,0,0,126,477ZM420,256a94,94,0,1,1-94-94A94.106,94.106,0,0,1,420,256ZM126,47H286a34.038,34.038,0,0,1,34,34V95H306a6,6,0,0,0,0,12h14v43.173a106,106,0,0,0,0,211.654V393H92V107H255a6,6,0,0,0,0-12H92V81A34.038,34.038,0,0,1,126,47ZM92,405H320v26a34.038,34.038,0,0,1-34,34H126a34.038,34.038,0,0,1-34-34Z"/>
<path d="M274.7,107H285.81a6,6,0,0,0,0-12H274.7a6,6,0,0,0,0,12Z"/>
<path d="m206 456a21 21 0 1 0 -21 -21 21.024 21.024 0 0 0 21 21zm0-30a9 9 0 1 1 -9 9 9.01 9.01 0 0 1 9 -9z"/>
</svg>
