<?xml version="1.0" encoding="UTF-8"?>
<svg enable-background="new 0 0 29.735 29.735" version="1.1" viewBox="0 0 29.735 29.735" xml:space="preserve" xmlns="http://www.w3.org/2000/svg">
<style>
  path {
    fill: #1a9e08;
  }
</style>
		<path d="m23.895 29.733c-1.237 0-2.731-0.31-4.373-0.929-3.603-1.359-7.521-4.043-11.035-7.557s-6.198-7.433-7.557-11.037c-1.237-3.275-1.24-5.963-0.01-7.193 0.178-0.178 0.359-0.368 0.545-0.563 1.123-1.18 2.422-2.521 4.073-2.448 1.16 0.048 2.283 0.768 3.435 2.198 3.396 4.225 1.865 5.731 0.093 7.477l-0.314 0.31c-0.29 0.29-0.839 1.632 4.26 6.73 1.666 1.665 3.084 2.883 4.217 3.62 0.715 0.464 1.991 1.164 2.514 0.641l0.315-0.318c1.744-1.77 3.25-3.296 7.474 0.099 1.431 1.15 2.15 2.273 2.198 3.434 0.069 1.682-1.271 2.954-2.453 4.076-0.194 0.185-0.384 0.364-0.56 0.54-0.614 0.613-1.59 0.92-2.822 0.92zm-18.476-28.731c-1.194 0-2.274 1.136-3.229 2.14-0.193 0.202-0.38 0.399-0.563 0.582-0.916 0.915-0.822 3.323 0.238 6.134 1.31 3.473 3.913 7.267 7.329 10.683s7.209 6.018 10.681 7.328c2.811 1.061 5.219 1.153 6.135 0.236 0.183-0.182 0.378-0.368 0.578-0.558 1.028-0.977 2.193-2.083 2.143-3.311-0.035-0.843-0.649-1.75-1.826-2.695-3.52-2.828-4.503-1.828-6.135-0.176l-0.32 0.323c-0.777 0.781-2.044 0.61-3.766-0.51-1.19-0.774-2.664-2.037-4.379-3.751-4.231-4.231-5.585-6.819-4.26-8.145l0.319-0.316c1.658-1.632 2.658-2.617-0.171-6.137-0.946-1.175-1.853-1.789-2.696-1.825-0.026-1e-3 -0.053-2e-3 -0.078-2e-3z"/>
		<path d="m24.07 12.29c-0.063 0-0.126-0.012-0.188-0.037-0.256-0.104-0.38-0.395-0.275-0.65 0.636-1.568 0.272-3.355-0.924-4.552-1.229-1.229-3.118-1.57-4.703-0.858-0.249 0.113-0.548 3e-3 -0.661-0.249-0.114-0.252-3e-3 -0.548 0.249-0.661 1.961-0.888 4.3-0.461 5.822 1.062 1.481 1.481 1.93 3.692 1.143 5.634-0.078 0.192-0.266 0.311-0.463 0.311z"/>
		<path d="m28.534 14.102c-0.063 0-0.126-0.012-0.188-0.037-0.257-0.104-0.38-0.395-0.275-0.65 1.365-3.367 0.588-7.202-1.981-9.771-2.638-2.638-6.695-3.378-10.095-1.841-0.252 0.11-0.548 2e-3 -0.662-0.25-0.113-0.253-2e-3 -0.549 0.25-0.663 3.777-1.706 8.283-0.885 11.214 2.046 2.854 2.854 3.718 7.114 2.2 10.854-0.078 0.194-0.266 0.312-0.463 0.312z"/>
</svg>
