<?xml version="1.0" encoding="UTF-8"?>
<svg enable-background="new 0 0 512 512" version="1.1" viewBox="0 0 512 512" xml:space="preserve" xmlns="http://www.w3.org/2000/svg">
<style>
  path {
    fill: #1a9e08;
  }
</style>
			<path d="m378.4 239.43c-4.143 0-7.5 3.357-7.5 7.5v10.531c0 4.143 3.357 7.5 7.5 7.5s7.5-3.357 7.5-7.5v-10.531c0-4.142-3.358-7.5-7.5-7.5z"/>
			<path d="m504.5 258.98c4.143 0 7.5-3.357 7.5-7.5v-35.505c0-1.863-0.534-3.676-1.545-5.245l-48.844-75.713c-2.463-3.815-6.645-6.093-11.186-6.093h-90.758c-7.34 0-13.311 5.97-13.311 13.308v165.28h-21.116v-33.171c11.854-13.219 19.08-30.669 19.08-49.779v-19.946c0-41.162-33.488-74.649-74.65-74.649h-49.223c-3.257-11.186-13.598-19.386-25.825-19.386h-58.778c-12.227 0-22.568 8.2-25.825 19.386h-9.019c-4.143 0-7.5 3.357-7.5 7.5s3.357 7.5 7.5 7.5h168.67c32.892 0 59.65 26.759 59.65 59.649v19.946c0 18.318-8.306 34.726-21.342 45.677-0.166 0.139-0.328 0.283-0.496 0.421-0.562 0.462-1.137 0.908-1.716 1.349-0.299 0.227-0.599 0.452-0.902 0.674-0.552 0.405-1.107 0.804-1.673 1.19-0.346 0.235-0.698 0.458-1.049 0.687-0.944 0.615-1.907 1.203-2.887 1.765-0.436 0.25-0.867 0.506-1.308 0.745-0.524 0.283-1.058 0.548-1.591 0.816-0.46 0.231-0.921 0.46-1.386 0.679-0.533 0.251-1.07 0.494-1.612 0.73-0.494 0.214-0.992 0.417-1.491 0.617-0.523 0.211-1.044 0.426-1.575 0.622-0.881 0.325-1.77 0.629-2.666 0.911-5.67 1.794-11.702 2.767-17.958 2.767h-195.02c-4.937 0-9.732-0.614-14.323-1.75-2.273-0.561-4.51-1.26-6.699-2.086-0.165-0.062-0.326-0.13-0.49-0.194-0.887-0.344-1.766-0.71-2.635-1.096-0.251-0.112-0.501-0.225-0.75-0.34-0.799-0.368-1.589-0.757-2.371-1.16-0.246-0.127-0.496-0.249-0.74-0.379-0.936-0.499-1.859-1.021-2.768-1.568-0.222-0.135-0.439-0.277-0.66-0.415-0.72-0.447-1.431-0.908-2.132-1.385-0.458-0.313-0.907-0.64-1.356-0.965-0.4-0.289-0.797-0.581-1.19-0.88-0.509-0.388-1.013-0.782-1.509-1.186-0.294-0.239-0.581-0.486-0.871-0.731-12.927-10.951-21.155-27.286-21.155-45.515v-19.946c0-31.591 24.678-57.748 56.182-59.551 4.135-0.236 7.296-3.78 7.059-7.916-0.235-4.136-3.773-7.313-7.916-7.059-39.434 2.255-70.325 34.992-70.325 74.526v19.946c0 20.856 8.607 39.732 22.443 53.29v29.661h-1.223c-8.686 0-15.751 7.065-15.751 15.75v11.779c0 8.686 7.065 15.751 15.751 15.751h33.389v-3e-3c1.936 28.24 25.525 50.628 54.262 50.628s52.327-22.388 54.262-50.628v3e-3h195.78v-3e-3c1.936 28.24 25.525 50.628 54.262 50.628s52.327-22.388 54.262-50.628v3e-3h24.836c10.88 0 19.73-8.851 19.73-19.73v-48.913c0-4.143-3.357-7.5-7.5-7.5s-7.5 3.357-7.5 7.5v25.364h-46.524c-9.748-9.196-22.874-14.851-37.305-14.851s-27.557 5.655-37.305 14.851h-14.509v-163.59h88.149l47.496 73.62v33.937c0 4.141 3.357 7.499 7.5 7.499zm-377.88-129.02c2.184-2.675 5.508-4.386 9.224-4.386h58.778c3.716 0 7.04 1.711 9.224 4.386h-77.226zm170.27 164.12h2e-3c0.415-0.163 0.819-0.349 1.23-0.519 0.364-0.151 0.727-0.303 1.088-0.459 0.775-0.335 1.544-0.684 2.308-1.045 0.328-0.155 0.654-0.313 0.979-0.473 0.789-0.387 1.57-0.787 2.344-1.202 0.277-0.149 0.552-0.3 0.826-0.452 0.813-0.449 1.619-0.911 2.415-1.39 0.211-0.127 0.42-0.257 0.63-0.387 0.509-0.313 1.027-0.612 1.528-0.938v20.293h-13.35v-13.428zm-27.219 5.128c4.163 0 8.241-0.358 12.221-1.017v9.317h-135.72c-3.427-3.233-7.263-6.036-11.436-8.3h134.93zm-232.23-9.947c0.272 0.156 0.553 0.296 0.827 0.449 0.578 0.324 1.161 0.64 1.748 0.948 0.454 0.238 0.909 0.473 1.368 0.702 0.692 0.346 1.39 0.679 2.094 1.004 0.387 0.178 0.773 0.355 1.163 0.526 0.774 0.341 1.556 0.667 2.343 0.982 0.345 0.138 0.689 0.276 1.036 0.409 0.829 0.318 1.666 0.617 2.509 0.906 0.198 0.068 0.393 0.147 0.592 0.214v12.107h-13.68v-18.247zm18.199 46.528h-34.422c-0.414-1e-3 -0.751-0.337-0.751-0.752v-11.779c0-0.414 0.337-0.75 0.751-0.75h39.118c-2.109 4.152-3.707 8.604-4.696 13.281zm10.48-37.082c2.801 0.32 5.643 0.501 8.527 0.501h8.353c-4.173 2.264-8.009 5.068-11.436 8.3h-5.444v-8.801zm42.749 87.706c-21.729 0-39.406-17.665-39.406-39.378s17.678-39.378 39.406-39.378 39.406 17.665 39.406 39.378-17.677 39.378-39.406 39.378zm388.13-63.905v8.55c0 2.608-2.122 4.73-4.73 4.73h-25.87c-0.988-4.677-2.586-9.128-4.695-13.28h35.295zm-83.829-14.851c21.728 0 39.406 17.665 39.406 39.378s-17.678 39.378-39.406 39.378c-21.729 0-39.406-17.665-39.406-39.378 0-21.712 17.678-39.378 39.406-39.378zm-48.534 14.85v1e-3c-2.109 4.152-3.707 8.604-4.695 13.28h-197.84c-0.988-4.677-2.586-9.129-4.696-13.281h207.23z"/>
			<path d="m108.87 320c-14.913 0-27.046 12.128-27.046 27.034s12.133 27.033 27.046 27.033 27.046-12.127 27.046-27.033c0-14.905-12.133-27.034-27.046-27.034zm0 39.068c-6.643 0-12.046-5.398-12.046-12.033 0-6.636 5.403-12.034 12.046-12.034s12.046 5.398 12.046 12.034c0 6.634-5.403 12.033-12.046 12.033z"/>
			<path d="m413.17 374.07c14.913 0 27.046-12.127 27.046-27.033s-12.133-27.034-27.046-27.034-27.046 12.128-27.046 27.034 12.133 27.033 27.046 27.033zm0-39.065c6.643 0 12.046 5.398 12.046 12.034 0 6.634-5.404 12.033-12.046 12.033-6.643 0-12.046-5.398-12.046-12.033 0-6.636 5.403-12.034 12.046-12.034z"/>
			<path d="m486.3 223.54c0-1.869-0.536-3.687-1.545-5.245l-37.604-58.29c-2.178-3.377-5.878-5.394-9.898-5.394h-53.417c-6.494 0-11.777 5.282-11.777 11.774v55.059c0 6.493 5.283 11.775 11.777 11.775h92.784c5.338 0 9.68-4.342 9.68-9.679zm-99.241-5.321v-48.608h48.439l31.357 48.608h-79.796z"/>
</svg>
