<?xml version="1.0" encoding="UTF-8"?>
<!DOCTYPE svg  PUBLIC '-//W3C//DTD SVG 1.1//EN'  'http://www.w3.org/Graphics/SVG/1.1/DTD/svg11.dtd'>
<svg enable-background="new 0 0 512 512" version="1.1" viewBox="0 0 512 512" xml:space="preserve" xmlns="http://www.w3.org/2000/svg">
<style>
  path {
    fill: #1a9e08;
  }
</style>
	<path d="m437.02 74.98c-48.353-48.352-112.64-74.98-181.02-74.98s-132.67 26.628-181.02 74.98-74.98 112.64-74.98 181.02 26.628 132.67 74.98 181.02 112.64 74.98 181.02 74.98 132.67-26.628 181.02-74.98 74.98-112.64 74.98-181.02-26.628-132.67-74.98-181.02zm-11.314 350.73c-45.33 45.33-105.6 70.294-169.71 70.294s-124.38-24.964-169.71-70.294-70.294-105.6-70.294-169.71 24.964-124.38 70.294-169.71 105.6-70.294 169.71-70.294 124.38 24.964 169.71 70.294 70.294 105.6 70.294 169.71-24.964 124.38-70.294 169.71z"/>
	<path d="M48,256c0-114.691,93.309-208,208-208c41.368,0,81.326,12.111,115.555,35.024c3.671,2.458,8.64,1.474,11.098-2.198   c2.458-3.671,1.474-8.64-2.198-11.098C343.584,45.046,300.548,32,256,32c-59.833,0-116.084,23.3-158.392,65.608   C55.3,139.916,32,196.167,32,256c0,55.2,20.254,108.232,57.032,149.328c1.58,1.766,3.768,2.665,5.964,2.665   c1.899,0,3.806-0.672,5.332-2.039c3.292-2.947,3.573-8.004,0.626-11.296C66.807,356.5,48,307.257,48,256z"/>
	<path d="m442.27 131.55c-2.458-3.672-7.427-4.656-11.098-2.198s-4.656 7.427-2.198 11.098c22.912 34.228 35.023 74.186 35.023 115.55 0 114.69-93.309 208-208 208-47.583 0-94.096-16.479-130.97-46.401-3.431-2.784-8.469-2.26-11.253 1.171s-2.26 8.469 1.171 11.253c39.715 32.228 89.808 49.977 141.05 49.977 59.833 0 116.08-23.3 158.39-65.608s65.608-98.559 65.608-158.39c0-44.547-13.046-87.583-37.727-124.45z"/>
	<path d="m394.66 100.96c5.379 4.813 10.565 9.964 15.414 15.308 1.579 1.74 3.749 2.624 5.927 2.624 1.917 0 3.842-0.686 5.374-2.076 3.271-2.969 3.517-8.029 0.548-11.301-5.22-5.752-10.803-11.296-16.593-16.478-3.292-2.946-8.35-2.666-11.296 0.626s-2.667 8.35 0.626 11.297z"/>
	<path d="m256 104c4.418 0 8-3.582 8-8v-24c0-4.418-3.582-8-8-8s-8 3.582-8 8v24c0 4.418 3.582 8 8 8z"/>
	<path d="m248 416v24c0 4.418 3.582 8 8 8s8-3.582 8-8v-24c0-4.418-3.582-8-8-8s-8 3.582-8 8z"/>
	<path d="m104 256c0-4.418-3.582-8-8-8h-24c-4.418 0-8 3.582-8 8s3.582 8 8 8h24c4.418 0 8-3.582 8-8z"/>
	<path d="m408 256c0 4.418 3.582 8 8 8h24c4.418 0 8-3.582 8-8s-3.582-8-8-8h-24c-4.418 0-8 3.582-8 8z"/>
	<path d="m182.93 113.44l-12-20.785c-2.209-3.827-7.102-5.136-10.928-2.928-3.826 2.209-5.137 7.102-2.928 10.928l12 20.785c1.482 2.566 4.171 4.001 6.936 4.001 1.357 0 2.733-0.346 3.993-1.073 3.825-2.209 5.136-7.102 2.927-10.928z"/>
	<path d="m342.93 390.56c-2.209-3.826-7.103-5.135-10.928-2.928-3.826 2.209-5.137 7.102-2.928 10.928l12 20.785c1.482 2.566 4.171 4.001 6.936 4.001 1.357 0 2.733-0.346 3.993-1.073 3.826-2.209 5.137-7.102 2.928-10.928l-12.001-20.785z"/>
	<path d="m96.659 356c1.357 0 2.733-0.346 3.993-1.073l20.785-12c3.826-2.209 5.137-7.102 2.928-10.928s-7.103-5.135-10.928-2.928l-20.785 12c-3.826 2.209-5.137 7.102-2.928 10.928 1.481 2.566 4.17 4.001 6.935 4.001z"/>
	<path d="m394.57 184c1.357 0 2.733-0.346 3.993-1.073l20.785-12c3.826-2.209 5.137-7.102 2.928-10.928s-7.102-5.135-10.928-2.928l-20.785 12c-3.826 2.209-5.137 7.102-2.928 10.928 1.482 2.566 4.171 4.001 6.935 4.001z"/>
	<path d="m352 89.723c-3.826-2.21-8.719-0.899-10.928 2.928l-12 20.785c-2.209 3.826-0.898 8.719 2.928 10.928 1.26 0.728 2.635 1.073 3.993 1.073 2.765 0 5.454-1.435 6.936-4.001l12-20.785c2.208-3.826 0.897-8.719-2.929-10.928z"/>
	<path d="m180 387.64c-3.826-2.209-8.719-0.898-10.928 2.928l-12 20.785c-2.209 3.826-0.898 8.719 2.928 10.928 1.26 0.728 2.635 1.073 3.993 1.073 2.765 0 5.454-1.435 6.936-4.001l12-20.785c2.208-3.826 0.897-8.719-2.929-10.928z"/>
	<path d="m390.56 342.93l20.785 12c1.26 0.728 2.635 1.073 3.993 1.073 2.765 0 5.454-1.435 6.936-4.001 2.209-3.826 0.898-8.719-2.928-10.928l-20.785-12c-3.826-2.21-8.719-0.898-10.928 2.928-2.21 3.826-0.899 8.719 2.927 10.928z"/>
	<path d="m121.44 169.07l-20.785-12c-3.826-2.21-8.719-0.898-10.928 2.928s-0.898 8.719 2.928 10.928l20.785 12c1.26 0.728 2.635 1.073 3.993 1.073 2.765 0 5.454-1.435 6.936-4.001 2.208-3.826 0.897-8.719-2.929-10.928z"/>
	<path d="m311.69 360.45c1.357 0 2.733-0.346 3.993-1.073 3.826-2.209 5.137-7.102 2.928-10.928l-44.38-76.869c3.591-4.197 5.767-9.638 5.767-15.581 0-10.429-6.689-19.322-16-22.624v-105.38c0-4.418-3.582-8-8-8s-8 3.582-8 8v105.38c-9.311 3.302-16 12.195-16 22.624 0 13.234 10.766 24 24 24 1.497 0 2.961-0.145 4.383-0.408l44.374 76.858c1.482 2.566 4.171 4.001 6.935 4.001zm-63.692-104.45c0-4.411 3.589-8 8-8s8 3.589 8 8-3.589 8-8 8-8-3.589-8-8z"/>
</svg>
