<?xml version="1.0" encoding="UTF-8"?>
<svg enable-background="new 0 0 512.001 512.001" version="1.1" viewBox="0 0 512.001 512.001" xml:space="preserve" xmlns="http://www.w3.org/2000/svg">
<style>
  path {
    fill: #1a9e08;
  }
</style>
			<path d="m188.72 341.94c4.133 0 7.483-3.35 7.483-7.483v-18.759c0-4.132-3.35-7.483-7.483-7.483s-7.483 3.35-7.483 7.483v18.759c0 4.133 3.35 7.483 7.483 7.483z"/>
			<path d="m373.97 306.24c-34.148 0-61.931 27.808-61.931 61.989 0 34.18 27.782 61.988 61.931 61.988 34.15 0 61.932-27.808 61.932-61.988 0-34.181-27.782-61.989-61.932-61.989zm0 108.85c-25.806 0-46.801-21.021-46.801-46.859s20.995-46.859 46.801-46.859 46.802 21.021 46.802 46.859c0 25.839-20.995 46.859-46.802 46.859z"/>
			<path d="m497.29 337.99h-6.548c-8.934 0-14.517-5.789-16.764-11.207-2.251-5.43-2.399-13.49 3.931-19.828l4.632-4.636c5.731-5.738 5.731-15.074-1e-3 -20.811l-21.925-21.948c-2.779-2.783-6.475-4.315-10.407-4.315-3.931 0-7.627 1.532-10.407 4.314l-3.83 3.834v-56.674l31.64 21.859c1.927 1.331 4.164 2.006 6.412 2.006 1.793 0 3.592-0.43 5.247-1.297 3.729-1.956 6.046-5.789 6.046-10.002v-43.687c0-3.702-1.815-7.171-4.855-9.28l-101.4-70.343c-3.396-2.356-8.059-1.513-10.414 1.883-2.356 3.396-1.513 8.058 1.882 10.413l99.815 69.247v34.762l-223.45-154.37c-0.296-0.205-0.607-0.377-0.923-0.535-0.073-0.036-0.147-0.068-0.221-0.101-0.247-0.113-0.498-0.212-0.754-0.297-0.087-0.029-0.174-0.06-0.262-0.086-0.304-0.089-0.611-0.161-0.923-0.21-0.026-4e-3 -0.051-0.012-0.076-0.016-2e-3 0-4e-3 -1e-3 -5e-3 -1e-3 -0.319-0.047-0.64-0.065-0.96-0.071-0.084-1e-3 -0.166-3e-3 -0.25-2e-3 -0.314 5e-3 -0.627 0.026-0.937 0.07-0.067 0.01-0.134 0.025-0.201 0.036-0.273 0.046-0.542 0.108-0.809 0.184-0.07 0.02-0.14 0.036-0.21 0.059-0.302 0.096-0.598 0.214-0.888 0.35-0.075 0.035-0.149 0.073-0.223 0.111-0.29 0.147-0.574 0.307-0.846 0.494-9e-3 6e-3 -0.02 0.01-0.029 0.017l-1.471 1.018-221.91 153.3 0.169-34.672 224.84-156.19c1.575-1.093 3.689-1.094 5.261-2e-3l100.45 69.688c3.398 2.357 8.06 1.512 10.414-1.883 2.356-3.396 1.513-8.058-1.882-10.413l-100.45-69.689c-6.681-4.633-15.655-4.631-22.332 7e-3l-226.41 157.28c-3.019 2.098-4.831 5.545-4.848 9.22l-0.213 43.624c-0.021 4.225 2.286 8.074 6.021 10.045 3.735 1.973 8.211 1.704 11.682-0.696l31.597-21.829v90.402c0 4.133 3.35 7.483 7.483 7.483s7.483-3.35 7.483-7.483v-100.56l178.37-123.4 178.37 123.4v72.9c-4.147-0.349-8.17-2.084-11.222-4.938-2.552-2.386-5.595-6.612-5.595-13.191v-6.555c0-8.116-6.601-14.72-14.713-14.72h-31.008c-8.113 0-14.712 6.604-14.712 14.72v6.555c0 11.41-9.324 18.23-18.338 18.231-3.32 0-8.209-0.932-12.646-5.373l-4.632-4.636c-2.779-2.782-6.475-4.313-10.406-4.313s-7.627 1.532-10.406 4.314l-21.928 21.95c-5.73 5.737-5.73 15.072 1e-3 20.811l4.63 4.635c6.331 6.339 6.182 14.398 3.931 19.828-2.246 5.418-7.829 11.208-16.764 11.208h-6.547c-8.113 0-14.713 6.604-14.713 14.72v31.041c0 8.116 6.601 14.72 14.713 14.72h6.547c8.935 0 14.518 5.79 16.764 11.208 0.797 1.922 1.321 4.177 1.396 6.566h-44.912v-172.34c0-11.691-9.511-21.202-21.202-21.202h-85.268c-11.69 0-21.202 9.511-21.202 21.202v172.34h-38.502v-88.958c0-4.133-3.35-7.483-7.483-7.483s-7.483 3.35-7.483 7.483v88.958h-27.177c-10.278 0-18.64 8.367-18.64 18.652v19.61c0 10.284 8.362 18.651 18.64 18.651h261.46l3.741 3.745c2.779 2.782 6.474 4.315 10.406 4.315 3.931 0 7.627-1.532 10.408-4.315l4.629-4.634c4.436-4.441 9.326-5.373 12.647-5.373 9.014 0 18.337 6.819 18.337 18.23v6.555c0 8.116 6.6 14.72 14.712 14.72h31.008c8.113 0 14.713-6.604 14.713-14.72v-6.555c0-11.411 9.323-18.23 18.337-18.23 3.321 0 8.211 0.932 12.647 5.373l4.631 4.635c2.779 2.782 6.475 4.315 10.406 4.315 3.932 0 7.628-1.533 10.406-4.314l21.927-21.95c5.731-5.738 5.731-15.074-1e-3 -20.812l-4.63-4.635c-6.332-6.339-6.183-14.398-3.932-19.828 2.247-5.418 7.83-11.207 16.764-11.207h6.548c8.112 0 14.713-6.604 14.713-14.72v-31.042c-1e-3 -8.117-6.602-14.72-14.714-14.72zm-373.31-100.32h85.268c3.438 0 6.236 2.797 6.236 6.236v172.34h-97.739v-172.34h-1e-3c0-3.438 2.797-6.236 6.236-6.236zm-101.85 220.52c-2.026 0-3.674-1.653-3.674-3.685v-19.61c0-2.033 1.649-3.686 3.674-3.686h246.2l-2.929 2.932c-5.73 5.737-5.73 15.072 1e-3 20.811l3.235 3.238h-246.51zm474.75-74.851h-6.132c-13.709 0-25.487 7.872-30.74 20.543-5.259 12.686-2.499 26.601 7.204 36.315l4.344 4.348-21.342 21.364-4.332-4.337c-6.32-6.326-14.613-9.81-23.351-9.81-18.453 0-33.467 14.965-33.467 33.36v6.145h-30.174v-6.145c0-18.395-15.013-33.36-33.467-33.36-8.739 0-17.032 3.484-23.352 9.81l-4.332 4.337-21.342-21.365 4.344-4.348c9.703-9.713 12.463-23.628 7.206-36.314-5.253-12.672-17.033-20.544-30.741-20.544h-6.131v-30.22h6.131c13.708 0 25.488-7.872 30.741-20.544 5.258-12.686 2.498-26.601-7.206-36.314l-4.344-4.348 21.342-21.365 4.333 4.337c6.32 6.327 14.611 9.811 23.348 9.811h3e-3c18.454-3e-3 33.467-14.968 33.467-33.36v-6.145h30.174v6.145c0 9.368 3.691 17.978 10.392 24.243 6.198 5.794 14.608 9.117 23.075 9.117 8.738 0 17.031-3.484 23.352-9.81l4.331-4.336 21.342 21.364-4.345 4.348c-9.702 9.713-12.462 23.628-7.203 36.314 5.253 12.672 17.032 20.543 30.74 20.543h6.132v30.221z"/>
</svg>
