<?xml version="1.0" encoding="UTF-8"?>
<svg enable-background="new 0 0 33.205 33.205" version="1.1" viewBox="0 0 33.205 33.205" xml:space="preserve" xmlns="http://www.w3.org/2000/svg">
<style>
  path {
    fill: #1a9e08;
  }
</style>
	<path d="m16.603 17.908c-3.131 0-5.679-2.548-5.679-5.68s2.547-5.68 5.679-5.68 5.679 2.548 5.679 5.68-2.548 5.68-5.679 5.68zm0-10.359c-2.58 0-4.679 2.099-4.679 4.68s2.099 4.68 4.679 4.68 4.679-2.099 4.679-4.68-2.099-4.68-4.679-4.68z"/>
		<path d="m16.603 33.205c-0.148 0-0.288-0.065-0.383-0.179-0.484-0.577-11.844-14.215-11.844-20.797 0-6.743 5.485-12.229 12.227-12.229s12.227 5.486 12.227 12.229c0 6.583-11.36 20.22-11.843 20.798-0.096 0.113-0.237 0.178-0.384 0.178zm0-32.205c-6.191 0-11.227 5.037-11.227 11.229 0 5.571 9.216 17.215 11.227 19.688 2.01-2.474 11.227-14.118 11.227-19.688-1e-3 -6.192-5.037-11.229-11.227-11.229z"/>
</svg>
