<?xml version="1.0" encoding="UTF-8"?>
<!DOCTYPE svg  PUBLIC '-//W3C//DTD SVG 1.1//EN'  'http://www.w3.org/Graphics/SVG/1.1/DTD/svg11.dtd'>
<svg width="508.04px" height="508.04px" enable-background="new 0 0 508.044 508.044" version="1.1" viewBox="0 0 508.044 508.044" xml:space="preserve" xmlns="http://www.w3.org/2000/svg">
		<path d="m0.108 352.54c0 66.794 54.144 120.94 120.94 120.94 66.794 0 120.94-54.144 120.94-120.94s-54.144-120.94-120.94-120.94c-13.727 0-26.867 2.393-39.168 6.61 27.216-156.09 148.94-256.75 36.102-173.91-125.12 91.867-118 284.54-117.86 288.07 0 0.055-6e-3 0.104-6e-3 0.165z"/>
		<path d="m266.17 352.54c0 66.794 54.144 120.94 120.94 120.94s120.94-54.144 120.94-120.94-54.145-120.94-120.94-120.94c-13.728 0-26.867 2.393-39.168 6.61 27.216-156.09 148.94-256.75 36.102-173.91-125.12 91.867-118.01 284.54-117.86 288.07 0 0.055-6e-3 0.104-6e-3 0.165z"/>
</svg>
