<?xml version="1.0" encoding="UTF-8"?>
<svg enable-background="new 0 0 512.001 512.001" version="1.1" viewBox="0 0 512.001 512.001" xml:space="preserve" xmlns="http://www.w3.org/2000/svg">
<style>
  path {
    fill: #1a9e08;
  }
</style>
			<path d="m166.28 426.06h281.64c4.143 0 7.5-3.358 7.5-7.5s-3.357-7.5-7.5-7.5h-281.64c-4.143 0-7.5 3.358-7.5 7.5 0 4.143 3.358 7.5 7.5 7.5z"/>
			<path d="m166.28 174.5h24.679c4.143 0 7.5-3.358 7.5-7.5s-3.357-7.5-7.5-7.5h-24.679c-4.143 0-7.5 3.358-7.5 7.5 0 4.143 3.358 7.5 7.5 7.5z"/>
			<path d="m166.28 237.39h24.679c4.143 0 7.5-3.358 7.5-7.5s-3.357-7.5-7.5-7.5h-24.679c-4.143 0-7.5 3.358-7.5 7.5 0 4.143 3.358 7.5 7.5 7.5z"/>
			<path d="m166.28 300.28h24.679c4.143 0 7.5-3.358 7.5-7.5s-3.357-7.5-7.5-7.5h-24.679c-4.143 0-7.5 3.358-7.5 7.5 0 4.141 3.358 7.5 7.5 7.5z"/>
			<path d="m166.28 363.17h24.679c4.143 0 7.5-3.358 7.5-7.5s-3.357-7.5-7.5-7.5h-24.679c-4.143 0-7.5 3.358-7.5 7.5s3.358 7.5 7.5 7.5z"/>
			<path d="m255.03 363.17h156.92c7.786 0 14.12-6.334 14.12-14.121v-117.46h9.371c4.261 0 7.979-2.734 9.25-6.803 1.272-4.071-0.228-8.438-3.732-10.866l-101.95-70.643c-3.256-2.257-7.776-2.257-11.034 0l-101.95 70.643c-3.504 2.429-5.004 6.796-3.73 10.867 1.271 4.068 4.988 6.801 9.249 6.801h9.371v117.46c-1e-3 7.787 6.333 14.121 14.119 14.121zm96.759-15h-36.596v-63.406h36.596v63.406zm59.284 0h-44.284v-64.62c0-7.601-6.184-13.785-13.785-13.785h-39.025c-7.602 0-13.785 6.184-13.785 13.785v64.621h-44.283v-116.58h155.16v116.58zm-77.582-190.46l84.984 58.886h-169.97l84.984-58.886z"/>
			<path d="m504.5 137.87c4.143 0 7.5-3.358 7.5-7.5v-27.384c0-14.943-12.135-27.1-27.05-27.1h-366.26v-0.334c0-32.795-26.621-59.477-59.344-59.477s-59.344 26.682-59.344 59.477v234.62c0 4.142 3.357 7.5 7.5 7.5s7.5-3.358 7.5-7.5v-234.62c0-24.524 19.893-44.477 44.344-44.477s44.344 19.952 44.344 44.477v321.38c-1.031-1.157-2.112-2.281-3.242-3.369-10.331-9.946-23.547-15.68-37.674-16.474-0.291-0.017-0.586-0.02-0.878-0.032-0.74-0.031-1.48-0.057-2.224-0.061-0.109-1e-3 -0.216-9e-3 -0.326-9e-3 -0.316 0-0.627 0.021-0.943 0.026-0.454 7e-3 -0.906 1e-3 -1.362 0.018-0.183 7e-3 -0.362 0.025-0.545 0.034-0.402 0.019-0.801 0.048-1.202 0.075-0.629 0.043-1.256 0.092-1.88 0.155-0.418 0.042-0.834 0.089-1.25 0.14-0.581 0.071-1.158 0.151-1.734 0.239-0.455 0.069-0.909 0.14-1.36 0.219-0.497 0.088-0.991 0.187-1.484 0.287-0.52 0.105-1.039 0.209-1.554 0.328-0.344 0.08-0.683 0.171-1.025 0.256-11.777 2.941-22.181 9.396-30.006 18.214v-56.384c0-4.142-3.357-7.5-7.5-7.5s-7.5 3.358-7.5 7.5v95.865c0 0.093 0.01 0.183 0.014 0.275 0.061 15.402 5.904 29.884 16.626 41.019 11.287 11.723 26.453 18.179 42.704 18.179h425.61c14.915 0 27.05-12.157 27.05-27.1v-307.22c0-4.142-3.357-7.5-7.5-7.5s-7.5 3.358-7.5 7.5v307.22c0 6.672-5.405 12.1-12.05 12.1h-425.61c-12.137 0-23.465-4.824-31.899-13.583-8.332-8.654-12.722-20.02-12.415-32.056 7e-3 -0.254 8e-3 -0.509 0.019-0.763 0.018-0.436 0.05-0.869 0.081-1.302 0.022-0.307 0.042-0.616 0.07-0.921 0.038-0.414 0.088-0.825 0.137-1.236 0.037-0.309 0.074-0.618 0.118-0.925 0.06-0.423 0.13-0.844 0.202-1.264 0.048-0.278 0.096-0.557 0.149-0.834 0.087-0.454 0.183-0.905 0.284-1.354 0.051-0.226 0.102-0.452 0.156-0.677 0.121-0.5 0.25-0.996 0.388-1.49 0.044-0.157 0.088-0.313 0.133-0.47 0.162-0.556 0.333-1.109 0.516-1.656 0.026-0.077 0.052-0.154 0.078-0.231 4.214-12.365 13.747-22.331 25.817-27.11 0.058-0.023 0.116-0.046 0.175-0.069 0.537-0.21 1.081-0.407 1.628-0.596 0.154-0.053 0.308-0.106 0.463-0.158 0.47-0.157 0.944-0.304 1.42-0.445 0.24-0.071 0.481-0.14 0.723-0.207 0.408-0.113 0.819-0.221 1.232-0.323 0.317-0.078 0.636-0.151 0.956-0.222 0.355-0.079 0.711-0.155 1.069-0.226 0.38-0.074 0.762-0.141 1.145-0.206 0.315-0.053 0.631-0.106 0.948-0.153 0.422-0.061 0.846-0.113 1.271-0.162 0.295-0.034 0.59-0.071 0.887-0.099 0.434-0.042 0.871-0.071 1.308-0.1 0.304-0.02 0.606-0.043 0.912-0.057 0.401-0.018 0.804-0.023 1.208-0.031 0.358-6e-3 0.717-0.016 1.074-0.015 0.44 3e-3 0.877 0.018 1.313 0.033 0.302 0.01 0.604 0.017 0.905 0.033 0.542 0.03 1.081 0.074 1.618 0.124 0.181 0.016 0.364 0.029 0.544 0.047 0.701 0.073 1.398 0.161 2.089 0.267 9e-3 1e-3 0.017 2e-3 0.026 4e-3 19.779 3.042 35.294 19.238 37.36 39.374 0.153 1.514 0.231 3.044 0.231 4.589 0 0.057 0.011 0.111 0.013 0.167 6e-3 0.265 0.026 0.526 0.059 0.784 0.015 0.116 0.033 0.231 0.053 0.345 0.045 0.256 0.102 0.507 0.172 0.753 0.02 0.069 0.035 0.14 0.057 0.209 0.089 0.283 0.199 0.556 0.32 0.823 0.043 0.096 0.09 0.19 0.137 0.284 0.115 0.228 0.24 0.45 0.377 0.664 0.043 0.067 0.083 0.135 0.127 0.201 0.16 0.234 0.337 0.455 0.522 0.669 0.073 0.084 0.147 0.165 0.224 0.246 0.18 0.19 0.368 0.371 0.566 0.541 0.063 0.054 0.126 0.108 0.191 0.16 0.219 0.176 0.45 0.337 0.689 0.488 0.081 0.051 0.161 0.1 0.244 0.148 0.277 0.161 0.562 0.309 0.86 0.434 8e-3 3e-3 0.015 8e-3 0.023 0.012 0.028 0.012 0.057 0.017 0.085 0.028 0.275 0.11 0.559 0.201 0.85 0.279 0.081 0.021 0.161 0.043 0.242 0.062 0.311 0.072 0.627 0.13 0.952 0.162 0.05 5e-3 0.099 4e-3 0.149 7e-3 0.196 0.016 0.393 0.03 0.594 0.03 0.081 0 0.159-0.01 0.239-0.012 0.094-3e-3 0.187-8e-3 0.281-0.014 0.305-0.021 0.607-0.056 0.901-0.112 0.017-3e-3 0.035-4e-3 0.052-8e-3 0.329-0.066 0.648-0.158 0.96-0.265 0.061-0.021 0.12-0.043 0.18-0.066 0.294-0.109 0.581-0.233 0.856-0.377 0.02-0.01 0.041-0.019 0.061-0.029 0.292-0.156 0.569-0.334 0.836-0.526 0.06-0.043 0.119-0.088 0.178-0.133 0.265-0.203 0.522-0.416 0.757-0.652l3e-3 -3e-3c0.018-0.018 0.033-0.038 0.051-0.057 0.153-0.156 0.301-0.317 0.44-0.486 0.045-0.055 0.083-0.113 0.126-0.169 0.107-0.138 0.214-0.275 0.311-0.42 0.034-0.051 0.062-0.105 0.095-0.156 0.099-0.156 0.197-0.312 0.284-0.475 0.019-0.036 0.035-0.074 0.053-0.111 0.094-0.181 0.183-0.365 0.262-0.554 0.01-0.024 0.017-0.049 0.027-0.074 0.081-0.202 0.157-0.406 0.221-0.616 8e-3 -0.027 0.013-0.054 0.021-0.081 0.06-0.206 0.115-0.415 0.158-0.628 0.013-0.063 0.018-0.128 0.029-0.192 0.031-0.177 0.062-0.354 0.08-0.536 0.025-0.248 0.038-0.498 0.038-0.749v-345.57h366.26c6.645 0 12.05 5.428 12.05 12.1v27.384c0 4.144 3.357 7.501 7.5 7.501z"/>
</svg>
