<svg version="1.1" xmlns="http://www.w3.org/2000/svg" xmlns:xlink="http://www.w3.org/1999/xlink" x="0px" y="0px" viewBox="0 0 791.911 791.911" style="enable-background:new 0 0 791.911 791.911;" xml:space="preserve">
<g>
	<path fill="#1a9e08" d="M585.792,0H207.06c-22.994,0-42.17,19.176-42.17,42.17v707.571c0,22.994,19.176,42.17,42.17,42.17h377.756
		c22.994,0,42.17-19.176,42.17-42.17V42.17C627.962,18.289,608.786,0,585.792,0z M207.06,35.512h377.756
		c3.818,0,6.747,2.841,6.747,6.747v59.482H200.401V42.259C200.401,38.353,203.242,35.512,207.06,35.512z M591.563,137.164v494.767
		H203.242V137.164H591.563z M585.792,756.577H207.06c-3.818,0-6.747-2.841-6.747-6.747v-81.499h392.138v81.499
		C592.539,752.671,589.61,756.577,585.792,756.577z M414.182,713.43c0,10.565-8.612,19.176-19.176,19.176
		s-19.176-8.612-19.176-19.176c0-10.565,8.612-19.176,19.176-19.176S414.182,702.866,414.182,713.43z"/>
</g></svg>
