<?xml version="1.0" encoding="UTF-8"?>
<svg enable-background="new 0 0 512 512" version="1.1" viewBox="0 0 512 512" xml:space="preserve" xmlns="http://www.w3.org/2000/svg">
<style>
  path {
    fill: #1a9e08;
  }
</style>
			<path d="m133.81 111.71c-9.885 0-17.927 8.042-17.927 17.927v40.059c0 9.885 8.042 17.928 17.927 17.928h82.744c9.885 0 17.927-8.042 17.927-17.928v-40.059c0-9.885-8.042-17.927-17.927-17.927h-82.744zm85.671 17.928v40.059c0 1.614-1.313 2.928-2.927 2.928h-82.744c-1.614 0-2.927-1.313-2.927-2.928v-40.059c0-1.614 1.313-2.927 2.927-2.927h82.744c1.614-1e-3 2.927 1.312 2.927 2.927z"/>
			<path d="m83.087 119.21v60.914c0 4.142 3.358 7.5 7.5 7.5s7.5-3.358 7.5-7.5v-60.914c0-4.142-3.358-7.5-7.5-7.5s-7.5 3.358-7.5 7.5z"/>
			<path d="m50.46 119.21v60.914c0 4.142 3.358 7.5 7.5 7.5s7.5-3.358 7.5-7.5v-60.914c0-4.142-3.358-7.5-7.5-7.5s-7.5 3.358-7.5 7.5z"/>
			<path d="m28.849 214.1l15.312 6.743c7.704 3.393 11.799 12.063 9.527 20.167-0.036 0.127-0.068 0.255-0.097 0.384l-14.08 62.837c-0.906 4.042 1.637 8.052 5.679 8.958 0.552 0.124 1.103 0.183 1.646 0.183 3.433 0 6.53-2.372 7.312-5.862l14.04-62.656c4.15-15.19-3.552-31.386-17.982-37.74l-15.312-6.743c-2.656-1.169-4.372-3.8-4.372-6.702v-87.952c0-4.038 3.285-7.323 7.322-7.323h259.86c4.142 0 7.5-3.358 7.5-7.5s-3.358-7.5-7.5-7.5h-259.86c-12.309 0-22.322 10.014-22.322 22.323v87.952c-1e-3 8.847 5.23 16.866 13.326 20.431z"/>
			<path d="m504.5 133.31h-82.743v-9.631c0-14.095-11.467-25.562-25.562-25.562h-17.475c-3.225-8.59-11.52-14.72-21.222-14.72h-29.958c-4.142 0-7.5 3.358-7.5 7.5s3.358 7.5 7.5 7.5h29.958c4.225 0 7.662 3.437 7.662 7.662v74.775c0 4.225-3.437 7.662-7.662 7.662h-74.69c-10.638 0-20.272 6.295-24.543 16.037l-1.517 3.459c-1.881 4.29-6.123 7.061-10.806 7.061h-60.876c-15.157 0-28.6 10.193-32.691 24.788-0.035 0.126-0.067 0.253-0.096 0.381l-5.495 24.468v1e-3l-21.872 97.386h-82.99l5.629-25.123c0.906-4.042-1.637-8.052-5.679-8.958-4.044-0.908-8.053 1.637-8.958 5.679l-6.364 28.403h-10.391c-8.91-1e-3 -16.159 7.248-16.159 16.158v34.204c0 8.91 7.249 16.159 16.159 16.159h172.41c8.91 0 16.159-7.249 16.159-16.159v-34.204c0-8.91-7.249-16.159-16.159-16.159h-48.283l19.848-88.375h16.226c25.497 0 46.617-19.042 49.922-43.649h19.661c10.638 0 20.272-6.295 24.543-16.037l1.517-3.459c1.881-4.29 6.123-7.061 10.806-7.061h74.69c10.132 0 18.731-6.684 21.622-15.874h17.075c14.095 0 25.562-11.467 25.562-25.562v-13.75h82.742c4.142 0 7.5-3.358 7.5-7.5s-3.358-7.5-7.5-7.5zm-315.93 243.77c0.639 0 1.159 0.52 1.159 1.159v34.204c0 0.639-0.52 1.159-1.159 1.159h-172.41c-0.639 0-1.159-0.52-1.159-1.159v-9.602h68.37c4.142 0 7.5-3.358 7.5-7.5s-3.358-7.5-7.5-7.5h-68.37v-9.602c0-0.639 0.52-1.159 1.159-1.159h172.41zm-12.209-118.38h-12.857l3.366-14.986c2.341-8.054 9.798-13.663 18.198-13.663h26.028c-3.156 16.3-17.527 28.649-34.735 28.649zm230.4-96.642c0 5.824-4.738 10.562-10.562 10.562h-16.035v-59.504h16.035c5.824 0 10.562 4.738 10.562 10.562v38.38z"/>
</svg>
