<?xml version="1.0" encoding="UTF-8"?>
<svg enable-background="new 0 0 512.001 512.001" version="1.1" viewBox="0 0 512.001 512.001" xml:space="preserve" xmlns="http://www.w3.org/2000/svg">
<style>
  path {
    fill: #1a9e08;
  }
</style>
		<path d="m500.33 370.72h-71.159v-66.478h71.158c6.437 0 11.674-5.237 11.674-11.674v-73.13c0-6.437-5.237-11.674-11.674-11.674h-71.159v-69.804c0-6.437-5.237-11.674-11.674-11.674h-71.123v-69.803c0-6.437-5.237-11.674-11.674-11.674h-39.071c-4.143 0-7.5 3.358-7.5 7.5s3.357 7.5 7.5 7.5h35.745v66.478h-150.66v-66.478h84.667c4.143 0 7.5-3.358 7.5-7.5s-3.357-7.5-7.5-7.5h-253.66c-6.437 0-11.674 5.237-11.674 11.674v76.518c-0.026 0.259-0.041 0.521-0.041 0.786v81.478c0 0.265 0.015 0.527 0.042 0.785v79.907c-0.027 0.258-0.042 0.52-0.042 0.785v26.555c0 4.142 3.358 7.5 7.5 7.5s7.5-3.358 7.5-7.5v-19.055h67.833v66.478h-67.833v-17.319c0-4.142-3.358-7.5-7.5-7.5s-7.5 3.358-7.5 7.5v24.819c0 0.265 0.015 0.527 0.042 0.785v76.518c0 6.437 5.237 11.673 11.674 11.673h488.61c6.437 0 11.674-5.237 11.674-11.673v-73.13c0-6.437-5.237-11.673-11.674-11.673zm-78.66-147.96h75.333v66.478h-150.63v-66.478h75.297zm-158.17-81.477h150.67v66.478h-150.67v-66.478zm67.833 81.477v66.478h-150.62v-66.478h150.62zm-82.833-81.477v66.478h-150.67v-66.478h150.67zm-233.46-81.478h150.66v66.478h-150.66v-66.478zm-0.042 81.477h67.833v66.478h-67.833v-66.478zm0.042 147.96v-66.478h150.66v66.478h-150.66zm150.66 162.96h-150.66v-66.477h150.66v66.477zm7.504-81.477h-75.37v-66.478h150.66v66.478h-75.292zm158.12 81.477h-150.62v-66.477h150.62v66.477zm7.537-81.477h-75.364v-66.478h150.66v66.478h-75.297zm158.13 81.477h-150.63v-66.477h150.63v66.477z"/>
</svg>
